<?xml version="1.0" encoding="UTF-8"?>
<svg width="800" height="600" xmlns="http://www.w3.org/2000/svg">
    <!-- Background -->
    <rect width="800" height="600" fill="#f8f9fa"/>
    
    <!-- File boxes and connections -->
    <!-- index.html at the top -->
    <rect x="300" y="20" width="200" height="60" rx="5" fill="#007bff" stroke="#0056b3"/>
    <text x="400" y="55" text-anchor="middle" fill="white" font-family="Arial">index.html</text>

    <!-- ServiceWorker and Manifest level -->
    <rect x="100" y="120" width="180" height="60" rx="5" fill="#6610f2" stroke="#520dc2"/>
    <text x="190" y="155" text-anchor="middle" fill="white" font-family="Arial">service-worker.js</text>
    
    <rect x="520" y="120" width="180" height="60" rx="5" fill="#6610f2" stroke="#520dc2"/>
    <text x="610" y="155" text-anchor="middle" fill="white" font-family="Arial">manifest.json</text>

    <!-- CSS and JS level -->
    <rect x="100" y="220" width="180" height="60" rx="5" fill="#198754" stroke="#146c43"/>
    <text x="190" y="255" text-anchor="middle" fill="white" font-family="Arial">css/styles.css</text>
    
    <rect x="520" y="220" width="180" height="60" rx="5" fill="#198754" stroke="#146c43"/>
    <text x="610" y="255" text-anchor="middle" fill="white" font-family="Arial">js/app.js</text>

    <!-- Task Management level -->
    <rect x="310" y="320" width="180" height="60" rx="5" fill="#dc3545" stroke="#b02a37"/>
    <text x="400" y="355" text-anchor="middle" fill="white" font-family="Arial">js/taskManager.js</text>

    <!-- Storage level -->
    <rect x="310" y="420" width="180" height="60" rx="5" fill="#ffc107" stroke="#cc9a06"/>
    <text x="400" y="455" text-anchor="middle" fill="white" font-family="Arial">localStorage/IndexedDB</text>

    <!-- Connection arrows -->
    <!-- index.html to ServiceWorker -->
    <path d="M 350 80 L 200 120" fill="none" stroke="#6c757d" stroke-width="2" marker-end="url(#arrow)"/>
    <!-- index.html to Manifest -->
    <path d="M 450 80 L 600 120" fill="none" stroke="#6c757d" stroke-width="2" marker-end="url(#arrow)"/>
    <!-- index.html to CSS -->
    <path d="M 350 80 L 200 220" fill="none" stroke="#6c757d" stroke-width="2" marker-end="url(#arrow)"/>
    <!-- index.html to JS -->
    <path d="M 450 80 L 600 220" fill="none" stroke="#6c757d" stroke-width="2" marker-end="url(#arrow)"/>
    <!-- app.js to taskManager.js -->
    <path d="M 600 280 L 400 320" fill="none" stroke="#6c757d" stroke-width="2" marker-end="url(#arrow)"/>
    <!-- taskManager.js to Storage -->
    <path d="M 400 380 L 400 420" fill="none" stroke="#6c757d" stroke-width="2" marker-end="url(#arrow)"/>

    <!-- Arrow marker definition -->
    <defs>
        <marker id="arrow" viewBox="0 0 10 10" refX="9" refY="5"
                markerWidth="6" markerHeight="6" orient="auto">
            <path d="M 0 0 L 10 5 L 0 10 z" fill="#6c757d"/>
        </marker>
    </defs>

    <!-- Workflow labels -->
    <text x="150" y="100" font-family="Arial" font-size="12" fill="#495057">1. Register SW</text>
    <text x="650" y="100" font-family="Arial" font-size="12" fill="#495057">2. Load PWA Meta</text>
    <text x="150" y="200" font-family="Arial" font-size="12" fill="#495057">3. Apply Styles</text>
    <text x="650" y="200" font-family="Arial" font-size="12" fill="#495057">4. Init App</text>
    <text x="450" y="300" font-family="Arial" font-size="12" fill="#495057">5. Manage Tasks</text>
    <text x="450" y="400" font-family="Arial" font-size="12" fill="#495057">6. Persist Data</text>

    <!-- Legend -->
</svg>